<svg width="114" height="315" viewBox="0 0 114 315" fill="none" xmlns="http://www.w3.org/2000/svg">
<path d="M39 0V152" stroke="black" stroke-width="3"/>
<path d="M27.4053 152H48.0034V254C48.0034 254 43.9381 274.692 27.4053 274C10.8725 273.308 -0.302992 273.964 2.97498 254C6.25295 234.036 12.2637 229.25 27.4053 227.5C42.5469 225.75 27.4053 152 27.4053 152Z" fill="white" stroke="black" stroke-width="3"/>
<path d="M83.7798 191.21L61.5328 191.382L62.3248 293.379C62.3248 293.379 66.8762 314.036 84.7271 313.206C102.578 312.376 114.653 312.937 110.958 293.002C107.262 273.066 100.733 268.33 84.3661 266.707C67.9987 265.084 83.7798 191.21 83.7798 191.21Z" fill="white" stroke="black" stroke-width="3"/>
<path d="M74 192V-13" stroke="black" stroke-width="3"/>
<path d="M94.9007 269C79.7735 289.082 80.9718 298.361 94.9007 312.5" stroke="black" stroke-width="3"/>
<path d="M17.6299 274.653C32.4646 254.354 31.1322 245.093 17 231.158" stroke="black" stroke-width="3"/>
<path d="M95 274C99.1378 276.586 100.553 277.277 100.553 281.775" stroke="black" stroke-width="2"/>
<path d="M13 268C8.8226 267.06 8.7864 266.682 7 263.556C6.58556 262.83 6 261.097 6 262" stroke="black" stroke-width="2" stroke-linecap="round"/>
<path d="M8 254C8.47786 251.551 8.18752 247.328 9.22222 245C9.9414 243.382 11 242.824 11 241" stroke="black" stroke-width="2" stroke-linecap="round"/>
<path d="M68 201C72.1287 200.194 75.8459 200 80 200" stroke="black" stroke-width="2" stroke-linecap="round"/>
<path d="M103 287C105.682 291.583 106 294.043 106 299" stroke="black" stroke-width="2" stroke-linecap="round"/>
<path d="M31 161H39" stroke="black" stroke-width="2" stroke-linecap="round"/>
</svg>
